<svg xmlns="http://www.w3.org/2000/svg" width="16" height="16" viewBox="0 0 16 16"><path fill="#222" d="M7.664.008a8 8 0 0 0-6.41 3.695 8.02 8.02 0 0 0 .734 9.574 8.01 8.01 0 0 0 9.399 1.97c.5-.231.715-.829.484-1.329a1.006 1.006 0 0 0-1.332-.484 5.99 5.99 0 0 1-7.047-1.477 5.99 5.99 0 0 1-.55-7.18A5.99 5.99 0 0 1 9.68 2.238 5.99 5.99 0 0 1 14 8v1c0 .36-.187.684-.5.863a1 1 0 0 1-1 0A1 1 0 0 1 12 9V8c0-2.2-1.8-4-4-4-2.195 0-4 1.8-4 4 0 2.195 1.805 4 4 4a3.98 3.98 0 0 0 2.707-1.078c.223.265.488.496.793.676.93.535 2.074.535 3 0A3 3 0 0 0 16 9V8A8.01 8.01 0 0 0 10.238.316 8 8 0 0 0 7.664.008M8 6c1.117 0 2 .883 2 2 0 1.113-.883 2-2 2-1.113 0-2-.887-2-2 0-1.117.887-2 2-2m0 0"/></svg>