<svg xmlns="http://www.w3.org/2000/svg" width="16" height="16" viewBox="0 0 16 16"><g fill="#222"><path d="M1.5 2h2c.277 0 .5.223.5.5v12c0 .277-.223.5-.5.5h-2a.5.5 0 0 1-.5-.5v-12c0-.277.223-.5.5-.5M5.5 4h1c.277 0 .5.223.5.5v10c0 .277-.223.5-.5.5h-1a.5.5 0 0 1-.5-.5v-10c0-.277.223-.5.5-.5M8.5 3h1c.277 0 .5.223.5.5v11c0 .277-.223.5-.5.5h-1a.5.5 0 0 1-.5-.5v-11c0-.277.223-.5.5-.5M10.707 1.46l.965-.26c.265-.071.539.09.613.355l3.363 12.558a.497.497 0 0 1-.351.61l-.969.261a.506.506 0 0 1-.613-.355L10.352 2.074a.5.5 0 0 1 .355-.613m0 0"/></g></svg>