<svg xmlns="http://www.w3.org/2000/svg" width="16" height="16" viewBox="0 0 16 16"><g fill="none" fill-rule="evenodd"><path fill="#222" fill-rule="nonzero" d="M5.82229639,2 C4.52932739,2 3.4170077,1.160156 2.9990387,0 L13.0013253,0 C12.5833563,1.160156 11.4710366,2 10.1780676,2 L5.82229639,2 Z" transform="matrix(1 0 0 -1 0 2)"/><path fill="#222" fill-rule="nonzero" d="M3.82229639,5 C2.52932739,5 1.9990387,4 1.9990387,3 L14.0013253,3 C14.0013253,4 13.4710366,5 12.1780676,5 L3.82229639,5 Z" transform="matrix(1 0 0 -1 0 8)"/><path fill="#222" fill-rule="nonzero" d="M12.6850373,6 C14.3418916,6 15.6850373,7.34314575 15.6850373,9 C15.6850373,9.09968928 15.6800683,9.19931661 15.6701489,9.29851116 L15.2701489,13.2985112 C15.1167883,14.8321165 13.8262917,16 12.2850373,16 L3.71496269,16 C2.17370834,16 0.883211655,14.8321165 0.729851116,13.2985112 L0.329851116,9.29851116 C0.164987956,7.64987956 1.36781993,6.17975159 3.01645153,6.01488843 C3.11564607,6.00496897 3.2152734,6 3.31496269,6 L12.6850373,6 Z M12.6850373,8 L3.31496269,8 C3.28173292,8 3.24852382,8.00165632 3.21545897,8.00496281 C2.6659151,8.0599172 2.26497111,8.54995985 2.3199255,9.09950372 L2.7199255,13.0995037 C2.77104568,13.6107055 3.20121124,14 3.71496269,14 L12.2850373,14 C12.7987888,14 13.2289543,13.6107055 13.2800745,13.0995037 L13.6800745,9.09950372 C13.683381,9.06643887 13.6850373,9.03322976 13.6850373,9 C13.6850373,8.44771525 13.2373221,8 12.6850373,8 Z"/><polygon fill="#222" points="5 11 5 12 11 12 11 11"/></g></svg>