<svg xmlns="http://www.w3.org/2000/svg" width="16" height="16" fill="none" viewBox="0 0 16 16"><g clip-path="url(#a)"><path fill="#222" d="M3 16a3.01 3.01 0 0 1-3-3c0-1.297.84-2.41 2-2.824V9.5C2 8.133 3.133 7 4.5 7H7V5.824A3.01 3.01 0 0 1 5 3c0-1.648 1.352-3 3-3s3 1.352 3 3c0 1.297-.84 2.41-2 2.824V7h2.5C12.867 7 14 8.133 14 9.5v.676c1.16.414 2 1.527 2 2.824 0 1.648-1.352 3-3 3a3.01 3.01 0 0 1-3-3c0-1.297.84-2.41 2-2.824V9.5c0-.29-.21-.5-.5-.5h-7c-.29 0-.5.21-.5.5v.676c1.16.414 2 1.527 2 2.824 0 1.648-1.352 3-3 3m0-1.5a1.5 1.5 0 1 0 0-3 1.5 1.5 0 0 0 0 3m10 0a1.5 1.5 0 1 0 0-3 1.5 1.5 0 0 0 0 3m-5-10a1.5 1.5 0 1 0 0-3 1.5 1.5 0 0 0 0 3"/></g><defs><clipPath id="a"><path fill="#fff" d="M0 16h16V0H0z"/></clipPath></defs></svg>