<svg xmlns="http://www.w3.org/2000/svg" width="16" height="16" viewBox="0 0 16 16"><g fill="none" fill-rule="evenodd"><polygon fill="#222" points="7 8 7 9 10 9 10 8"/><polygon fill="#222" points="7 6 7 7 11 7 11 6"/><path fill="#222" fill-rule="nonzero" d="M12,0 C13.6568542,0 15,1.34314575 15,3 L15,10 C15,11.6568542 13.6568542,13 12,13 L6,13 C4.34314575,13 3,11.6568542 3,10 L3,3 C3,1.34314575 4.34314575,0 6,0 L12,0 Z M12,2 L6,2 C5.44771525,2 5,2.44771525 5,3 L5,10 C5,10.5522847 5.44771525,11 6,11 L12,11 C12.5522847,11 13,10.5522847 13,10 L13,3 C13,2.44771525 12.5522847,2 12,2 Z"/><path fill="#222" fill-rule="nonzero" d="M2,4 C2,4 2,4.44771525 2,5 L2,11 C2,12.6568542 3.34314575,14 5,14 L10,14 C10.5522847,14 11,14 11,14 C11,15 10,16 9,16 L5,16 C2.23857625,16 8.8817842e-15,13.7614237 8.8817842e-15,11 L8.8817842e-15,6 C8.8817842e-15,5 1,4 2,4 Z"/></g></svg>