<svg xmlns="http://www.w3.org/2000/svg" width="16" height="16" viewBox="0 0 16 16"><g fill="#222"><path d="M9 14c-.562 0-1-.437-1-1s.438-1 1-1 1 .438 1 1-.437 1-1 1m0-4a3 3 0 1 0 .002 6.002A3 3 0 0 0 9 10m0 0"/><path d="M15 14h-4v-2h4zM7 14H1c-.55 0-1-.45-1-1s.45-1 1-1h6c.55 0 1 .45 1 1s-.45 1-1 1m0 0"/><path d="M3 13V7c0-3.316 2.684-6 6-6h6v2H9C6.777 3 5 4.777 5 7v6zm0 0"/><path d="m3.777 11.457-2.617-1.34a2.165 2.165 0 0 1-.496-3.512l4.238-3.968.684.726-4.238 3.973c-.301.281-.407.656-.356 1.016.047.359.254.687.621.875l2.621 1.34zM9.438 9H8.082a.503.503 0 0 1-.426-.762l1.196-1.957.855.524-1.195 1.957L8.082 8h1.356zm3.304-1.996.766 1.23a.5.5 0 0 1 .012.508.49.49 0 0 1-.438.258h-2.633V8h2.633l-.422.766-.77-1.235zM9.437 5.316l.645-1.074a.502.502 0 0 1 .844-.02l1.273 1.887-.828.559-1.273-1.887.843-.023-.644 1.074zm0 0"/></g></svg>