<svg xmlns="http://www.w3.org/2000/svg" width="16" height="16" viewBox="0 0 16 16"><g fill="#222"><path d="M3 2C1.355 2 0 3.355 0 5v6c0 1.645 1.355 3 3 3h10c1.645 0 3-1.355 3-3V5c0-1.645-1.355-3-3-3zm0 2h10c.57 0 1 .43 1 1v6c0 .57-.43 1-1 1H3c-.57 0-1-.43-1-1V5c0-.57.43-1 1-1m0 0"/><path d="M6.5 5A2.507 2.507 0 0 0 4 7.5c0 .332.156.629.281.934C3.551 8.867 3 9.59 3 10.5c0 .277.223.5.5.5s.5-.223.5-.5c0-.664.418-1.21 1.004-1.418a.48.48 0 0 0 .309-.312.5.5 0 0 0-.06-.438A1.5 1.5 0 0 1 5 7.5C5 6.664 5.664 6 6.5 6a1.49 1.49 0 0 1 1.242 2.332.51.51 0 0 0-.058.438c.05.148.164.265.312.312.59.207 1.024.758 1.004 1.406a.5.5 0 0 0 1 .024c.023-.926-.543-1.649-1.285-2.082C8.84 8.129 9 7.832 9 7.5 9 6.125 7.875 5 6.5 5M10.516 4.98h1.898c.305 0 .55.25.55.555a.553.553 0 0 1-.55.555h-1.898a.557.557 0 0 1-.555-.555c0-.305.25-.555.555-.555M10.484 6.984h1.961c.29 0 .52.23.52.52a.52.52 0 0 1-.52.523h-1.96a.523.523 0 0 1-.524-.523c0-.29.234-.52.523-.52m0 0"/></g></svg>