<svg xmlns="http://www.w3.org/2000/svg" width="16" height="16" viewBox="0 0 16 16"><path d="M0 10c0 3.3 2.7 6 6 6s6-2.7 6-6v-.004c-.004-.7-.277-1.344-.52-1.996H13c.55 0 1-.45 1-1V6h1c.55 0 1-.45 1-1V1c0-.55-.45-1-1-1h-3a1 1 0 0 0-.707.293L7.34 4.243c-.442-.106-.875-.24-1.332-.243H6c-3.3 0-6 2.7-6 6m2 0a3.987 3.987 0 0 1 3.996-4c.461.004.918.086 1.348.246.367.137.777.043 1.054-.23L12.414 2H14v2h-1c-.55 0-1 .45-1 1v1h-1a1 1 0 0 0-.707.293l-.617.617a1.01 1.01 0 0 0-.172 1.188c.324.582.492 1.238.496 1.906A3.987 3.987 0 0 1 6 14c-2.223 0-4-1.777-4-4m0 0"/><path fill="#222" d="M5 12c-.55 0-1-.45-1-1s.45-1 1-1 1 .45 1 1-.45 1-1 1m0 0"/></svg>