<svg xmlns="http://www.w3.org/2000/svg" width="16" height="16" viewBox="0 0 16 16"><g fill="#222"><path d="M3.988 1v4c0 1.555.309 2.79.899 3.848.398.71.902 1.328 1.488 1.957l.668-2.309a6 6 0 0 1-.41-.625C6.207 7.113 5.988 6.305 5.988 5V1zM9.227 2l-3.22 13h2l.782-3h4.438l.78 3h2L12.79 2zm1.562 2h.438l1.5 6H9.289zm0 0"/><path d="M4.008 1v4c0 1.305-.223 2.113-.645 2.871-.425.758-1.101 1.488-2.062 2.45l1.414 1.413c.98-.98 1.805-1.832 2.394-2.886.59-1.059.899-2.293.899-3.848V1zm0 0"/><path d="M1.008 4v2H7.57l.512-2zm0 0"/></g></svg>