<svg xmlns="http://www.w3.org/2000/svg" width="16" height="16" viewBox="0 0 16 16"><g fill="#222"><path d="M6.227 1.172c-1.426.02-2.247 1.312-2.57 2.61v.038L3.015 6h-1c-.555 0-1 .445-1 1s.445 1 1 1h12c.554 0 1-.445 1-1s-.446-1-1-1h-1l-.641-2.207c-.195-.848-1.047-1.738-2.14-1.738-.598 0-1.169.246-1.575.68a2.62 2.62 0 0 0-2.394-1.563zM4.516 8.984a2.5 2.5 0 1 0 0 5 2.5 2.5 0 0 0 0-5m0 1a1.497 1.497 0 1 1 0 2.996c-.828 0-1.496-.668-1.496-1.496s.667-1.5 1.496-1.5M11.516 8.984a2.5 2.5 0 1 0 0 5 2.5 2.5 0 0 0 0-5m0 1a1.497 1.497 0 1 1 0 2.996c-.828 0-1.496-.668-1.496-1.496s.668-1.5 1.496-1.5m0 0"/><path d="M6.45 12.543a.5.5 0 0 1-.5-.5c0-.734.394-1.414 1.034-1.781a2.09 2.09 0 0 1 2.063 0 2.06 2.06 0 0 1 1.039 1.781.501.501 0 0 1-1 0c0-.375-.203-.723-.535-.91a1.07 1.07 0 0 0-1.07 0 1.04 1.04 0 0 0-.532.91c0 .277-.226.5-.5.5m0 0"/></g></svg>