<svg xmlns="http://www.w3.org/2000/svg" width="16" height="16" viewBox="0 0 16 16"><g fill="#222"><path d="M2.188 2C.98 2 0 2.8 0 4v9.977c0 1.203.98 2 2.188 2h11.625c1.207 0 2.187-1.016 2.187-2.22V4.22C16 3.019 15.02 2 13.813 2zM2 4h12v10H2zm0 0"/><path d="M1 8v1h3.625c.023.3-.008.605.3 1.223C5.364 11.093 6.333 12 8 12s2.637-.906 3.07-1.777c.309-.618.282-.922.305-1.223H14V8h-3.5v.5s-.008.648-.324 1.277C9.863 10.407 9.332 11 8 11s-1.863-.594-2.18-1.223C5.508 9.148 5.5 8.5 5.5 8.5V8zm0 0"/></g></svg>