<svg xmlns="http://www.w3.org/2000/svg" width="16" height="16" viewBox="0 0 16 16"><path fill="#2e3436" d="M9.75.277c-.89 0-1.781.34-2.457 1.016l-3.5 3.5-.059.062c-.07.082-.574.63-.793 1.438-.218.805-.058 1.973.84 2.902.914.946 2.13 1.094 2.946.868.812-.231 1.222-.586 1.5-.872l1.98-1.984a1 1 0 1 0-1.414-1.414l-2 2c-.004.008-.012.012-.016.02.11-.118-.293.238-.59.324-.3.082-.503.148-.968-.332-.485-.5-.422-.711-.348-.989.074-.273.258-.503.39-.66l3.446-3.449c.648-.644 1.441-.644 2.086 0l2.5 2.5c.648.648.648 1.441 0 2.086l-6 6s-.184.184-.473.375S6.168 14 6 14H3c-.168 0-.45-.113-.668-.332S2 13.168 2 13V9c0-.55-.45-1-1-1s-1 .45-1 1v4c0 .832.387 1.55.918 2.082S2.168 16 3 16h3c.832 0 1.469-.36 1.93-.668s.777-.625.777-.625l6-6a3.48 3.48 0 0 0 0-4.914l-2.5-2.5A3.47 3.47 0 0 0 9.75.277m0 0"/></svg>