<svg xmlns="http://www.w3.org/2000/svg" width="16" height="16" viewBox="0 0 16 16"><path fill="#222" d="m13.922 0-1.914.586.586 1.906 1.914-.582zM11.05.879l-1.91.582.582 1.91 1.914-.586zm-2.867.875L6.27 2.34l.585 1.906L8.77 3.66zm-2.871.875-1.91.586.581 1.906 1.914-.582zm-2.868.879L.531 4.09 1.117 6l1.914-.586zM1 7v5.934a3.05 3.05 0 0 0 3.031 3.035h7.918a3.05 3.05 0 0 0 3.031-3.035V7h-2v5.934a1.01 1.01 0 0 1-1.03 1.035H4.03A1.01 1.01 0 0 1 3 12.934V7zm3 0v2h2V7zm3 0v2h2V7zm3 0v2h2V7zm0 0"/></svg>