<svg xmlns="http://www.w3.org/2000/svg" width="16" height="16" viewBox="0 0 16 16"><path fill="#222" d="M8 1C6.355 1 5 2.355 5 4v4.344A3.5 3.5 0 0 0 3.5 8 3.517 3.517 0 0 0 0 11.5C0 13.422 1.578 15 3.5 15c1.914 0 3.492-1.566 3.5-3.48V4c0-.562.438-1 1-1h4c.563 0 1 .438 1 1v4.344A3.5 3.5 0 0 0 11.5 8 3.517 3.517 0 0 0 8 11.5c0 1.922 1.578 3.5 3.5 3.5s3.5-1.578 3.5-3.5V4c0-1.645-1.355-3-3-3zm-4.5 9c.84 0 1.5.66 1.5 1.5v.016A1.48 1.48 0 0 1 3.5 13c-.84 0-1.5-.656-1.5-1.5 0-.84.66-1.5 1.5-1.5m8 0c.84 0 1.5.66 1.5 1.5 0 .844-.66 1.5-1.5 1.5s-1.5-.656-1.5-1.5c0-.84.66-1.5 1.5-1.5m0 0"/></svg>