<svg xmlns="http://www.w3.org/2000/svg" width="16" height="16" viewBox="0 0 16 16"><g fill="#222"><path d="M4.5 6c-.277 0-.5.223-.5.5s.223.5.5.5h6c.277 0 .5-.223.5-.5s-.223-.5-.5-.5zm0 2c-.277 0-.5.223-.5.5s.223.5.5.5h5c.277 0 .5-.223.5-.5S9.777 8 9.5 8zm0 2c-.277 0-.5.223-.5.5s.223.5.5.5h6c.277 0 .5-.223.5-.5s-.223-.5-.5-.5zm0 2c-.277 0-.5.223-.5.5s.223.5.5.5h3c.277 0 .5-.223.5-.5s-.223-.5-.5-.5zm0 0"/><path d="M3 1c-1.09 0-2 .91-2 2v11c0 1.09.91 2 2 2h9c1.09 0 2-.91 2-2V3c0-1.09-.91-2-2-2v13H3zm0 0"/><path d="M4.492-.008A.5.5 0 0 0 4 .5v3a.501.501 0 0 0 1 0v-3a.5.5 0 0 0-.148-.36.5.5 0 0 0-.36-.148m2 0A.5.5 0 0 0 6 .5v3a.501.501 0 0 0 1 0v-3a.5.5 0 0 0-.148-.36.5.5 0 0 0-.36-.148m2 0A.5.5 0 0 0 8 .5v3a.501.501 0 0 0 1 0v-3a.5.5 0 0 0-.148-.36.5.5 0 0 0-.36-.148m2 0A.5.5 0 0 0 10 .5v3a.501.501 0 0 0 1 0v-3a.5.5 0 0 0-.148-.36.5.5 0 0 0-.36-.148m0 0"/></g></svg>