<svg xmlns="http://www.w3.org/2000/svg" width="16" height="16" viewBox="0 0 16 16"><g fill="#222"><path d="M2.188 2C.98 2 0 2.8 0 4v9.977c0 1.199.98 2 2.188 2h11.625c1.207 0 2.187-1.02 2.187-2.22V4.22C16 3.019 15.02 2 13.813 2H12v2h2v10H2V4h2V2zm0 0"/><path d="M1 9v1h3.625c.023.3-.008.605.3 1.223C5.364 12.093 6.333 13 8 13s2.637-.906 3.07-1.777c.309-.618.282-.922.305-1.223H14V9h-3.5v.5s-.008.648-.324 1.277C9.863 11.407 9.332 12 8 12s-1.863-.594-2.18-1.223C5.508 10.148 5.5 9.5 5.5 9.5V9zM11 5h-1c-.258 0-.527-.129-.719-.312L9 4.406V9H7V4.406l-.281.282C6.527 4.87 6.258 5 6 5H5V4s.09-.55.281-.75L8 .594l2.719 2.656c.191.2.281.441.281.75zm0 0"/></g></svg>