<svg xmlns="http://www.w3.org/2000/svg" width="16" height="16" viewBox="0 0 16 16"><g fill="#222"><path d="M7.516-.004c-4.13 0-7.5 3.371-7.5 7.5s3.37 7.5 7.5 7.5 7.5-3.371 7.5-7.5-3.371-7.5-7.5-7.5m0 2c3.05 0 5.5 2.45 5.5 5.5s-2.45 5.5-5.5 5.5-5.5-2.45-5.5-5.5 2.449-5.5 5.5-5.5m0 0"/><path fill-opacity=".349" d="M4.223 3.094a5.53 5.53 0 0 0-2.207 4.203l.21.215.883.879v.886l.883.88v1.59q.412.346.883.605v-.43l.883-.879v-.887l.883-.879-.883-.886-.883-.88H3.109v-.886h.883v-.879l.883-.887h.883V3.98l-.883-.886zm5.066 0v.886h-.883l-.883.88.883.886.883-.887h1.766l.91 1.325v.441l.855.887V5.977a5.54 5.54 0 0 0-2-2.883zm3.531 4.418-.91.05-.855-.937v-.219H9.977l-.442-.664H8.406l-.883.883v.883l.883.883h.883l.469.664v1.765l1.191 1.012q.559-.447.988-1.023V8.39zm0 0"/></g></svg>