<svg xmlns="http://www.w3.org/2000/svg" width="16" height="16" viewBox="0 0 16 16"><path fill="#222" d="M4 1C2 1 2 3 2 3h11v11H2s0 2 2 2h9s.457.016.945-.23C14.437 15.523 15 14.832 15 14V3c0-.832-.562-1.523-1.055-1.77C13.457.984 13 1 13 1zM1.5 4c-.277 0-.5.223-.5.5s.223.5.5.5h2c.277 0 .5-.223.5-.5S3.777 4 3.5 4zm7.023.992-.238.012q-.323.023-.644.105a3.503 3.503 0 0 0-2.614 3.832A3.505 3.505 0 0 0 8.512 12c.851 0 1.644-.273 1.644-.273l-.316-.95S9.137 11 8.512 11h-.004A2.496 2.496 0 0 1 6.02 8.816a2.49 2.49 0 0 1 1.867-2.738 2.8 2.8 0 0 1 1.808.164c.524.238.89.63 1.004 1.059.125.46.086.969-.086 1.273-.097.176-.402.356-.613.426v-.5C10 7.676 9.324 7 8.5 7S7 7.676 7 8.5 7.676 10 8.5 10c.176 0 .344-.04.5-.094v.043l.45.051c.94.094 1.69-.32 2.038-.937.348-.618.356-1.356.176-2.02-.207-.785-.816-1.375-1.555-1.711a3.7 3.7 0 0 0-1.586-.336zM1.5 6c-.277 0-.5.223-.5.5s.223.5.5.5h2c.277 0 .5-.223.5-.5S3.777 6 3.5 6zm0 2c-.277 0-.5.223-.5.5s.223.5.5.5h2c.277 0 .5-.223.5-.5S3.777 8 3.5 8zm7 0c.281 0 .5.219.5.5s-.219.5-.5.5-.5-.219-.5-.5.219-.5.5-.5m-7 2c-.277 0-.5.223-.5.5s.223.5.5.5h2c.277 0 .5-.223.5-.5s-.223-.5-.5-.5zm0 2c-.277 0-.5.223-.5.5s.223.5.5.5h2c.277 0 .5-.223.5-.5s-.223-.5-.5-.5zm0 0"/></svg>