<svg xmlns="http://www.w3.org/2000/svg" width="16" height="16" viewBox="0 0 16 16"><path fill="#222" d="M7.992.992A7 7 0 0 0 1 8v5.988c0 .555.45 1.004 1.004 1.004.55-.004 1-.453.996-1.004v-.992c0-.555.45-1.004 1.004-1.004.55.004 1 .453.996 1.004v.992c0 .555.45 1.004 1.004 1.004.55-.004 1-.453.996-1.004v-.992c0-.555.45-1.004 1.004-1.004.55.004 1 .453.996 1.004v.992c0 .555.45 1.004 1.004 1.004.55-.004 1-.453.996-1.004v-.992c0-.555.45-1.004 1.004-1.004.55.004 1 .453.996 1.004v.992c0 .555.45 1.004 1.004 1.004.55-.004 1-.453.996-1.004V8A7.007 7.007 0 0 0 7.992.992M6 4.992c.555 0 1 .445 1 1v1c0 .555-.445 1-1 1s-1-.445-1-1v-1c0-.555.445-1 1-1m4 0c.555 0 1 .445 1 1v1c0 .555-.445 1-1 1s-1-.445-1-1v-1c0-.555.445-1 1-1m0 0"/></svg>