<svg xmlns="http://www.w3.org/2000/svg" width="16" height="16" viewBox="0 0 16 16"><g fill="#222"><path d="M9.457.063a1.6 1.6 0 0 0-1.129.421l-.324.29-.32-.29c-1.598-1.468-3.774.977-2.13 2.391l2.45 2.184 2.453-2.184c1.11-.953.461-2.773-1-2.813M10.512 5.016q-.677.002-1.305.156a6.337 6.337 0 0 1 1.8 1.879 3.48 3.48 0 0 1 3.005 3.465c0 1.945-1.555 3.5-3.5 3.5a3.484 3.484 0 0 1-3.5-3.5c0-.59.144-1.141.398-1.625q-.02-.03-.043-.051a2.5 2.5 0 0 0-1.75-.824 5.45 5.45 0 0 0-.605 2.5c0 3.027 2.472 5.5 5.5 5.5s5.5-2.473 5.5-5.5-2.473-5.5-5.5-5.5m0 0"/><path d="M5.512 16.016q.675-.002 1.304-.157a6.8 6.8 0 0 1-1.128-.988 6 6 0 0 1-.672-.89 3.48 3.48 0 0 1-3.004-3.465c0-1.946 1.554-3.5 3.5-3.5s3.5 1.554 3.5 3.5c0 .59-.145 1.14-.399 1.629q.022.022.043.046a2.5 2.5 0 0 0 1.75.825c.387-.75.606-1.602.606-2.5 0-3.028-2.473-5.5-5.5-5.5s-5.5 2.472-5.5 5.5 2.472 5.5 5.5 5.5m0 0"/></g></svg>