<svg xmlns="http://www.w3.org/2000/svg" width="16" height="16" viewBox="0 0 16 16"><g fill="none"><path fill="#000" d="M9.5,0 C10.87956,0 12,1.12044 12,2.5 L12,3 L15,3 C15.5522847,3 16,3.44771525 16,4 C16,4.55228475 15.5522847,5 15,5 L14,5 L14,13 C14,14.6579 12.65786,16 11,16 L5,16 C3.34214,16 2,14.6579 2,13 L2,5 L1,5 C0.44771525,5 1.42108547e-14,4.55228475 1.42108547e-14,4 C1.42108547e-14,3.44771525 0.44771525,3 1,3 L4.02149,3 L4.02149,2.5 C4.02149,1.12044 5.14193,0 6.52149,0 L9.5,0 Z M9.5,2 L6.52149,2 C6.2335,2 6.02149,2.21201 6.02149,2.5 L6.02149,3 L10,3 L10,2.5 C10,2.21201 9.78799,2 9.5,2 Z M12,5 L4,5 L4,13 C4,13.5641 4.43587,14 5,14 L11,14 C11.56413,14 12,13.5641 12,13 L12,5 Z"/><path fill="#000" fill-rule="evenodd" d="M7.5000025,6.5 L7.5000025,7.5 C7.5000025,7.75689 7.6298325,8.02846 7.8125025,8.21875 L8.0937525,8.5 L4.5000025,8.5 L4.5000025,10.5 L8.0937525,10.5 L7.8125025,10.78125 C7.6298325,10.97154 7.5000025,11.18985 7.5000025,11.5 L7.5000025,12.5 L8.5000025,12.5 C8.8094525,12.5 9.0523225,12.4097 9.2500025,12.21875 L11.5000025,9.5 L9.2500025,6.78125 C9.0523225,6.5903 8.8094525,6.5 8.5000025,6.5 L7.5000025,6.5 Z" transform="rotate(-90 8 9.5)"/></g></svg>