<svg xmlns="http://www.w3.org/2000/svg" width="16" height="16" viewBox="0 0 16 16"><path d="M6.5 0A2.5 2.5 0 0 0 4 2.5V3H1c-.55 0-1 .45-1 1s.45 1 1 1h1v8a3 3 0 0 0 3 3h6a3 3 0 0 0 3-3V5h1c.55 0 1-.45 1-1s-.45-1-1-1h-3.023v-.5a2.5 2.5 0 0 0-2.5-2.5zm0 2h2.977c.289 0 .5.21.5.5V3H6v-.5c0-.29.21-.5.5-.5M4 5h8v8c0 .563-.437 1-1 1H5c-.562 0-1-.437-1-1zm0 0"/><path d="M8.984 7v5c0 .55-.449 1-1 1s-1-.45-1-1V7c0-.55.45-1 1-1s1 .45 1 1m0 0"/><path d="m5.293 8.293 2-2a1 1 0 0 1 1.414 0l2 2a1.002 1.002 0 0 1-.45 1.676 1 1 0 0 1-.964-.262l-2-2h1.414l-2 2a1 1 0 1 1-1.414-1.414m0 0"/></svg>