<svg xmlns="http://www.w3.org/2000/svg" width="16" height="16" viewBox="0 0 16 16"><path fill="#222" d="M8 0C3.594 0 0 3.594 0 8s3.594 8 8 8 8-3.594 8-8-3.594-8-8-8m.469 2.02a5.98 5.98 0 0 1 5.511 5.52q-3.109.234-4.718 1.94c-1.055 1.114-1.586 2.649-1.723 4.5A5.98 5.98 0 0 1 2.02 8.47c2.06-.125 3.626-.656 4.711-1.739C7.812 5.645 8.344 4.078 8.47 2.02m-1 .007c-.125 1.864-.602 3.149-1.45 3.996-.843.844-2.128 1.32-3.996 1.446A5.98 5.98 0 0 1 7.47 2.027m6.508 6.516a5.984 5.984 0 0 1-5.434 5.434c.133-1.653.605-2.922 1.445-3.809.856-.91 2.137-1.477 3.989-1.625m0 0"/></svg>