<svg xmlns="http://www.w3.org/2000/svg" width="16" height="16" viewBox="0 0 16 16"><g fill="#222"><path d="M7.96 1.992q-.117.001-.241.008a6 6 0 0 0-.563.063 6.03 6.03 0 0 0-3.968 2.343 5.9 5.9 0 0 0-1.18 3.586h2.004c0-.832.254-1.676.797-2.398 1.336-1.778 3.82-2.114 5.597-.782.43.32.77.735 1.031 1.188H10c-.55 0-1 .45-1 1v1h6V2h-1c-.55 0-1 .45-1 1v1.688a5.97 5.97 0 0 0-5.04-2.696M8.035 15.008q.123-.001.246-.008.281-.017.563-.062a6.03 6.03 0 0 0 3.969-2.344 5.9 5.9 0 0 0 1.18-3.586h-2.005a4 4 0 0 1-.8 2.398c-1.333 1.778-3.817 2.114-5.594.785A4 4 0 0 1 4.562 11H6c.55 0 1-.45 1-1V9H1v6h1c.55 0 1-.45 1-1v-1.687a5.97 5.97 0 0 0 5.035 2.695m0 0"/></g></svg>