<svg xmlns="http://www.w3.org/2000/svg" width="16" height="16" viewBox="0 0 16 16"><g fill="#222"><path fill-opacity=".329" d="M3 12h10c.55 0 1-.45 1-1s-.45-1-1-1H3c-.55 0-1 .45-1 1s.45 1 1 1M3 15h4c.55 0 1-.45 1-1s-.45-1-1-1H3c-.55 0-1 .45-1 1s.45 1 1 1m0 0"/><path d="M4.531.969A2.546 2.546 0 0 0 2 3.5V8c0 .55.45 1 1 1s1-.45 1-1V6h1v2c0 .55.45 1 1 1s1-.45 1-1V3.52A2.52 2.52 0 0 0 4.55.969zM4.52 2.98c.277.016.484.22.48.5V4H4v-.5c0-.297.227-.508.52-.52M9 1c-.55 0-1 .45-1 1v6c0 .55.45 1 1 1h1.5C11.867 9 13 7.867 13 6.5S11.867 4 10.5 4H10V2c0-.55-.45-1-1-1m1 5h.5c.29 0 .5.21.5.5s-.21.5-.5.5H10zm0 0"/></g></svg>