<svg xmlns="http://www.w3.org/2000/svg" width="16" height="16" viewBox="0 0 16 16"><g fill="#222"><path d="M1 3h14c.55 0 1 .45 1 1s-.45 1-1 1H1c-.55 0-1-.45-1-1s.45-1 1-1m0 0"/><path d="M4 4V2.5C4 1.121 5.121 0 6.5 0h2.98c1.38 0 2.5 1.121 2.5 2.5V4h-2V2.5c0-.29-.214-.5-.5-.5H6.5c-.29 0-.5.21-.5.5V4zM4 4v9c0 .563.438 1 1 1h6c.563 0 1-.437 1-1V4h2v9a3 3 0 0 1-3 3H5a3 3 0 0 1-3-3V4zm0 0"/><path d="M7 7v5c0 .277-.223.5-.5.5S6 12.277 6 12V7c0-.277.223-.5.5-.5s.5.223.5.5M10 7v5c0 .277-.223.5-.5.5S9 12.277 9 12V7c0-.277.223-.5.5-.5s.5.223.5.5m0 0"/></g></svg>