<svg xmlns="http://www.w3.org/2000/svg" width="16" height="16" viewBox="0 0 16 16"><path fill="#222" d="M7.516-.004c-4.13 0-7.5 3.371-7.5 7.5s3.37 7.5 7.5 7.5 7.5-3.371 7.5-7.5-3.371-7.5-7.5-7.5M9.359 2.31a5.46 5.46 0 0 1 2.407 1.687h-1.227c-.305-.61-.7-1.18-1.18-1.687m-3.718.011a7.2 7.2 0 0 0-1.172 1.676H3.266A5.5 5.5 0 0 1 5.64 2.32m1.375.098v1.578H5.617a6 6 0 0 1 1.399-1.578m1 .016c.558.445 1.02.976 1.379 1.562h-1.38zM2.613 4.996h1.442a8 8 0 0 0-.39 2H2.038c.063-.715.266-1.39.574-2m2.508 0h1.895v2H4.672c.047-.684.195-1.36.45-2m2.895 0H9.89c.254.64.402 1.316.449 2H8.016zm2.941 0h1.461c.309.61.512 1.285.574 2h-1.644a8 8 0 0 0-.391-2m-8.918 3h1.625a8 8 0 0 0 .395 2H2.613a5.5 5.5 0 0 1-.574-2m2.633 0h2.344v2H5.125a6.8 6.8 0 0 1-.453-2m3.344 0h2.324c-.05.684-.2 1.363-.453 2H8.016zm3.332 0h1.644a5.5 5.5 0 0 1-.574 2h-1.465a8 8 0 0 0 .395-2m-8.082 3h1.21c.313.61.712 1.18 1.196 1.688a5.46 5.46 0 0 1-2.406-1.688m2.363 0h1.387v1.55a5.9 5.9 0 0 1-1.387-1.55m2.387 0h1.367a5.9 5.9 0 0 1-1.367 1.535zm2.52 0h1.23a5.46 5.46 0 0 1-2.438 1.695 7 7 0 0 0 1.207-1.695m0 0"/></svg>